<?xml version="1.0" encoding="UTF-8"?>
<svg width="1200pt" height="1200pt" version="1.1" viewBox="0 0 1200 1200" xmlns="http://www.w3.org/2000/svg">
 <path d="m1019.9 425.91h-66.91c-12.191-67.176-70.871-118.18-141.56-118.18h-192c-70.715 0-129.39 51-141.56 118.2h-117.66v-0.023438c0-23.137-18.742-41.879-41.879-41.879h-36.238c-23.137 0-41.879 18.742-41.879 41.879v0.023438h-60.445c-33 0-60 27-60 60l0.019531 357.22c0 33 27 60 60 60l279.49 0.023438c52.754 86.27 147.82 143.98 256.15 143.98 108.3 0 203.39-57.707 256.13-143.98h48.348c33 0 60-27 60-60l-0.003906-357.27c0-33-27-60-60-60zm-721.1 109.33c-16.57 0-30-13.43-30-30 0-16.57 13.43-30 30-30 16.57 0 30 13.43 30 30 0 16.574-13.43 30-30 30zm301.03-139.36 231.19 0.023437-0.023438 30-231.19-0.023437zm115.59 591.27c-132.35 0-240-107.68-240-240 0-132.35 107.65-240 240-240 132.32 0 240 107.65 240 240 0 132.32-107.66 240-240 240z"/>
 <path d="m715.4 567.16c-99.254 0-180 80.746-180 180s80.746 180 180 180 180-80.746 180-180-80.734-180-180-180zm60 180c0-33.098-26.914-60-60-60h-0.011719v-24h0.011719c46.32 0 84 37.691 84 84z"/>
 <path d="m328.96 152.05h-60v76.418l-60-0.011719 90 90.094 90-90.07-60-0.011719z"/>
</svg>
