<?xml version="1.0" encoding="UTF-8"?>
<svg width="1200pt" height="1200pt" version="1.1" viewBox="0 0 1200 1200" xmlns="http://www.w3.org/2000/svg">
 <defs>
  <clipPath id="b">
   <path d="m234 538h743.86v422h-743.86z"/>
  </clipPath>
  <clipPath id="a">
   <path d="m878 699h99.859v100h-99.859z"/>
  </clipPath>
 </defs>
 <g clip-path="url(#b)">
  <path d="m283.34 562.84c-13.402 0-24.305 10.902-24.305 24.293v323.07c0 13.395 10.902 24.297 24.305 24.297h645.16c13.402 0 24.305-10.902 24.305-24.297v-323.07c0-13.391-10.902-24.293-24.305-24.293zm645.16 396.44h-645.16c-27.066 0-49.082-22.016-49.082-49.074v-323.07c0-27.055 22.016-49.07 49.082-49.07h645.16c27.066 0 49.082 22.016 49.082 49.07v323.07c0 27.059-22.016 49.074-49.082 49.074z" fill="#ff001b" fill-rule="evenodd"/>
 </g>
 <path d="m320.98 959.28c-6.8516 0-12.391-5.5508-12.391-12.391v-396.44c0-6.8359 5.5391-12.387 12.391-12.387s12.387 5.5508 12.387 12.387v396.44c0 6.8398-5.5352 12.391-12.387 12.391" fill="#ff001b" fill-rule="evenodd"/>
 <path d="m890.87 959.28c-6.8516 0-12.391-5.5508-12.391-12.391v-396.44c0-6.8359 5.5391-12.387 12.391-12.387 6.8516 0 12.387 5.5508 12.387 12.387v396.44c0 6.8398-5.5352 12.391-12.387 12.391" fill="#ff001b" fill-rule="evenodd"/>
 <path d="m283.82 773.45c-6.8516 0-12.387-5.5508-12.387-12.391v-61.941c0-6.8398 5.5352-12.391 12.387-12.391 6.8516 0 12.391 5.5508 12.391 12.391v61.941c0 6.8398-5.5391 12.391-12.391 12.391" fill="#ff001b" fill-rule="evenodd"/>
 <path d="m283.82 823c-6.8516 0-12.387-5.5508-12.387-12.391v-12.387c0-6.8398 5.5352-12.391 12.387-12.391 6.8516 0 12.391 5.5508 12.391 12.391v12.387c0 6.8398-5.5391 12.391-12.391 12.391" fill="#ff001b" fill-rule="evenodd"/>
 <path d="m370.54 971.66h-12.391c-6.8516 0-12.387-5.5508-12.387-12.387 0-6.8398 5.5352-12.391 12.387-12.391h12.391c6.8516 0 12.387 5.5508 12.387 12.391 0 6.8359-5.5352 12.387-12.387 12.387" fill="#ff001b" fill-rule="evenodd"/>
 <path d="m420.09 971.66h-12.391c-6.8477 0-12.387-5.5508-12.387-12.387 0-6.8398 5.5391-12.391 12.387-12.391h12.391c6.8516 0 12.387 5.5508 12.387 12.391 0 6.8359-5.5352 12.387-12.387 12.387" fill="#ff001b" fill-rule="evenodd"/>
 <path d="m469.65 971.66h-12.391c-6.8477 0-12.387-5.5508-12.387-12.387 0-6.8398 5.5391-12.391 12.387-12.391h12.391c6.8516 0 12.391 5.5508 12.391 12.391 0 6.8359-5.5391 12.387-12.391 12.387" fill="#ff001b" fill-rule="evenodd"/>
 <g clip-path="url(#a)">
  <path d="m928.03 723.89c-13.664 0-24.777 11.113-24.777 24.777 0 13.664 11.113 24.777 24.777 24.777 13.668 0 24.777-11.113 24.777-24.777 0-13.664-11.109-24.777-24.777-24.777m0 74.332c-27.328 0-49.555-22.227-49.555-49.555 0-27.332 22.227-49.555 49.555-49.555 27.332 0 49.555 22.223 49.555 49.555 0 27.328-22.223 49.555-49.555 49.555" fill="#ff001b" fill-rule="evenodd"/>
 </g>
 <path d="m407.7 909.72h-37.164c-6.8516 0-12.391-5.5469-12.391-12.387v-37.168c0-6.8359 5.5391-12.387 12.391-12.387 6.8516 0 12.387 5.5508 12.387 12.387v24.777h24.777c6.8516 0 12.391 5.5508 12.391 12.391 0 6.8398-5.5391 12.387-12.391 12.387" fill="#ff001b" fill-rule="evenodd"/>
 <path d="m370.54 649.56c-6.8516 0-12.391-5.5508-12.391-12.391v-37.168c0-6.8359 5.5391-12.387 12.391-12.387h37.164c6.8516 0 12.391 5.5508 12.391 12.387 0 6.8398-5.5391 12.391-12.391 12.391h-24.777v24.777c0 6.8398-5.5352 12.391-12.387 12.391" fill="#ff001b" fill-rule="evenodd"/>
 <path d="m841.31 649.56c-6.8516 0-12.391-5.5508-12.391-12.391v-24.777h-24.777c-6.8516 0-12.387-5.5508-12.387-12.391 0-6.8359 5.5352-12.387 12.387-12.387h37.168c6.8516 0 12.387 5.5508 12.387 12.387v37.168c0 6.8398-5.5352 12.391-12.387 12.391" fill="#ff001b" fill-rule="evenodd"/>
 <path d="m841.31 909.72h-37.168c-6.8516 0-12.387-5.5469-12.387-12.387 0-6.8398 5.5352-12.391 12.387-12.391h24.777v-24.777c0-6.8359 5.5391-12.387 12.391-12.387s12.387 5.5508 12.387 12.387v37.168c0 6.8398-5.5352 12.387-12.387 12.387" fill="#ff001b" fill-rule="evenodd"/>
 <path d="m618.31 860.16c-3.4062 0-6.8125-1.3984-9.2539-4.1484l-89.855-101.09-89.855 101.09c-4.5469 5.1055-12.375 5.5625-17.48 1.0273-5.1172-4.5586-5.5742-12.375-1.0273-17.504l99.109-111.5c4.6953-5.2773 13.812-5.2773 18.508 0l99.109 111.5c4.5469 5.1289 4.0898 12.945-1.0273 17.504-2.3516 2.0938-5.3008 3.1211-8.2266 3.1211" fill="#ff001b" fill-rule="evenodd"/>
 <path d="m779.37 823c-3.4062 0-6.8125-1.4023-9.2539-4.1523l-89.855-101.09-87.789 98.762c-4.543 5.1172-12.387 5.5625-17.48 1.0273-5.1133-4.5469-5.5742-12.375-1.0273-17.492l97.043-109.18c4.6836-5.2812 13.801-5.293 18.508 0l99.109 111.5c4.5469 5.1289 4.0898 12.945-1.0273 17.508-2.3555 2.0938-5.3008 3.1211-8.2266 3.1211" fill="#ff001b" fill-rule="evenodd"/>
 <path d="m469.65 661.95c-13.664 0-24.777 11.113-24.777 24.777 0 13.664 11.113 24.777 24.777 24.777 13.664 0 24.777-11.113 24.777-24.777 0-13.664-11.113-24.777-24.777-24.777m0 74.332c-27.328 0-49.555-22.227-49.555-49.555s22.227-49.555 49.555-49.555c27.328 0 49.555 22.227 49.555 49.555s-22.227 49.555-49.555 49.555" fill="#ff001b" fill-rule="evenodd"/>
 <path d="m667.86 500.89c-2.7617 0-5.5234-0.91406-7.8281-2.8008l-128.43-105.08-128.44 105.08c-5.3008 4.3242-13.105 3.5586-17.43-1.7461-4.3359-5.2891-3.5547-13.094 1.7461-17.43l136.28-111.5c4.5469-3.7422 11.137-3.7422 15.684 0l136.28 111.5c5.3008 4.3359 6.082 12.141 1.7461 17.43-2.4531 3-6.0078 4.5469-9.6016 4.5469" fill="#ff001b" fill-rule="evenodd"/>
 <path d="m605.94 451.34c-3.9258 0-7.793-1.8594-10.195-5.3398-3.9023-5.625-2.4922-13.34 3.1328-17.23l161.05-111.5c4.5469-3.1602 10.605-2.9102 14.891 0.59375l136.28 111.5c5.3008 4.3359 6.082 12.141 1.7461 17.43-4.3359 5.3047-12.141 6.0703-17.43 1.7461l-129.05-105.59-153.39 106.18c-2.1406 1.4844-4.6055 2.2031-7.0352 2.2031" fill="#ff001b" fill-rule="evenodd"/>
 <path d="m444.87 253.12c-20.492 0-37.168 16.676-37.168 37.164 0 20.492 16.676 37.168 37.168 37.168 20.492 0 37.168-16.676 37.168-37.168 0-20.488-16.676-37.164-37.168-37.164m0 99.109c-34.156 0-61.945-27.789-61.945-61.945s27.789-61.941 61.945-61.941 61.945 27.785 61.945 61.941-27.789 61.945-61.945 61.945" fill="#ff001b" fill-rule="evenodd"/>
</svg>
