<?xml version="1.0" encoding="UTF-8"?>
<svg width="1200pt" height="1200pt" version="1.1" viewBox="0 0 1200 1200" xmlns="http://www.w3.org/2000/svg">
 <path d="m372 948h456c66.141 0 120-53.859 120-120v-456c0-66.141-53.859-120-120-120h-456c-66.141 0-120 53.859-120 120v456c0 66.141 53.859 120 120 120zm-72-576c0-39.703 32.297-72 72-72h456c39.703 0 72 32.297 72 72v456c0 39.703-32.297 72-72 72h-456c-39.703 0-72-32.297-72-72z" fill="#fff"/>
 <path d="m504.14 746.39c21.375 12.375 50.766 12.234 72.141-0.23438l144-84c22.078-12.844 35.766-36.703 35.766-62.156s-13.688-49.312-35.766-62.156l-144-84c-11.062-6.375-23.531-9.8438-36.234-9.8438s-24.938 3.375-35.859 9.6094c-22.312 12.844-36.141 36.703-36.141 62.391v168c0 25.688 13.781 49.547 36.141 62.391zm11.859-230.39c0-8.5312 4.5469-16.547 12-20.766s16.781-4.2188 24 0l144 84c7.2188 4.2188 11.859 12.375 11.859 20.766s-4.6875 16.547-11.859 20.766l-144 84c-3.375 1.9219-7.5469 3-12 3s-8.5312-1.0781-11.859-2.8594c-7.5469-4.5469-12.141-12.469-12.141-20.859z" fill="#fff"/>
</svg>
