<?xml version="1.0" encoding="UTF-8"?>
<svg width="1200pt" height="1200pt" version="1.1" viewBox="0 0 1200 1200" xmlns="http://www.w3.org/2000/svg">
 <path d="m618.87 1007.7c-211.92 0-384.33-172.43-384.33-384.35s172.41-384.33 384.33-384.33c211.91 0 384.31 172.41 384.31 384.33-0.003906 211.92-172.4 384.35-384.31 384.35zm0-720.83c-185.54 0-336.48 150.95-336.48 336.48 0 185.55 150.95 336.48 336.48 336.48 185.52 0 336.44-150.93 336.44-336.48 0-185.54-150.92-336.48-336.44-336.48z" fill="#fff"/>
 <path d="m665.21 623.4 102.85-118.44c9.9453-11.441 8.7188-28.773-2.7188-38.719-11.426-9.9219-28.773-8.707-38.707 2.7344l-97.762 112.57-97.762-112.57c-9.9336-11.441-27.266-12.68-38.719-2.7344-11.441 9.9453-12.668 27.266-2.7344 38.719l102.85 118.44-102.81 118.4c-9.9336 11.441-8.7188 28.773 2.7344 38.707 5.1992 4.5195 11.602 6.7344 17.988 6.7344 7.6797 0 15.309-3.1992 20.734-9.4531l97.719-112.52 97.719 112.52c5.4141 6.2539 13.055 9.4531 20.734 9.4531 6.3867 0 12.785-2.2148 17.988-6.7344 11.441-9.9336 12.668-27.266 2.7188-38.707z" fill="#fff"/>
</svg>
