<?xml version="1.0" encoding="UTF-8"?>
<svg width="1200pt" height="1200pt" version="1.1" viewBox="0 0 1200 1200" xmlns="http://www.w3.org/2000/svg">
 <path d="m326.95 344.84c-38.266 0-69.379 31.441-69.379 69.887v370.55c0 38.449 31.113 69.887 69.379 69.887h546.14c38.266 0 69.289-31.441 69.289-69.887v-37.352l-0.003906-0.003907c0.085937-0.8125 0.085937-1.6289 0-2.4414v-330.76c0-38.445-31.02-69.887-69.289-69.887zm0 23.609h546.14c25.477 0 45.652 20.383 45.652 46.277v306.94l-168.53-137.95c-4.5156-3.7227-11.082-3.5742-15.426 0.34766l-93.957 84.48-145.95-151.6c-2.1836-2.2617-5.1758-3.5586-8.3164-3.6055-3.1445-0.050781-6.1758 1.1562-8.4219 3.3516l-196.96 189.05v-291.01c0-25.895 20.293-46.277 45.77-46.277zm307.1 75.027c-27.621 0-50.125 22.84-50.125 50.543s22.504 50.473 50.125 50.473c27.621 0 50.195-22.77 50.195-50.473s-22.574-50.543-50.195-50.543zm0 23.633c14.742 0 26.562 11.848 26.562 26.906s-11.82 26.84-26.562 26.84c-14.742 0-26.492-11.777-26.492-26.84 0-15.059 11.75-26.906 26.492-26.906zm-148.07 74.75 172.03 178.58-0.003906 0.003906c4.5352 4.6523 11.973 4.7656 16.648 0.25391 4.6758-4.5078 4.832-11.945 0.34766-16.645l-17.824-18.516 85.891-77.176 175.67 143.88v33.043c0 25.895-20.176 46.254-45.652 46.254l-546.14-0.003906c-25.477 0-45.77-20.359-45.77-46.254v-46.828z" fill-rule="evenodd"/>
</svg>
