<?xml version="1.0" encoding="UTF-8"?>
<svg width="128pt" height="128pt" version="1.1" viewBox="0 0 128 128" xmlns="http://www.w3.org/2000/svg">
 <path d="m90.879 30.664h-6.8945c-3.5312-5.4961-9.5781-8.8516-16.145-8.8516h-7.6797c-6.5664 0-12.613 3.3555-16.145 8.8516h-6.8945c-12.703 0-23.039 10.336-23.039 23.039v29.441c0 12.703 10.336 23.039 23.039 23.039h53.762c12.703 0 23.039-10.336 23.039-23.039v-29.441c0-12.703-10.336-23.039-23.039-23.039zm17.922 52.48c0 9.8789-8.0391 17.922-17.922 17.922h-53.762c-9.8789 0-17.922-8.0391-17.922-17.922v-29.441c0-9.8789 8.0391-17.922 17.922-17.922h9.8906l0.72656-1.3555c2.4688-4.625 7.2344-7.4961 12.426-7.4961h7.6797c5.1953 0 9.9531 2.8711 12.426 7.4961l0.72656 1.3555h9.8906c9.8789 0 17.922 8.0391 17.922 17.922z" fill="#fff"/>
 <path d="m64 50.559c-9.8789 0-17.922 8.0391-17.922 17.922 0 9.8789 8.0391 17.922 17.922 17.922 9.8789 0 17.922-8.0391 17.922-17.922 0-9.8789-8.0391-17.922-17.922-17.922zm0 30.719c-7.0586 0-12.801-5.7383-12.801-12.801 0-7.0586 5.7383-12.801 12.801-12.801 7.0586 0 12.801 5.7383 12.801 12.801 0 7.0586-5.7383 12.801-12.801 12.801z" fill="#fff"/>
</svg>
