<?xml version="1.0" encoding="UTF-8"?>
<svg width="1200pt" height="1200pt" version="1.1" viewBox="0 0 1200 1200" xmlns="http://www.w3.org/2000/svg">
 <path d="m421.31 1046.2c-6.2344 0-12.375-2.3906-17.156-7.0781l-367.08-367.08c-9.4688-9.4688-9.4688-24.844 0-34.312l119.39-119.39c9.1406-9.1406 25.219-9.1406 34.312 0l230.53 230.53 588-587.86c4.5469-4.5469 10.688-7.0781 17.156-7.0781s12.609 2.5312 17.156 7.0781l119.39 119.39c9.4688 9.4688 9.4688 24.844 0 34.312l-724.55 724.4c-4.7812 4.6875-11.016 7.0781-17.156 7.0781zm-332.76-391.22 332.76 332.68 690.14-690.14-85.078-85.078-588 587.86c-9.4688 9.4688-24.844 9.4688-34.312 0l-230.44-230.39z" fill="#fff"/>
</svg>
