<?xml version="1.0" encoding="UTF-8"?>
<svg width="1200pt" height="1200pt" version="1.1" viewBox="0 0 1200 1200" xmlns="http://www.w3.org/2000/svg">
 <path d="m952.69 238.57v-47.906c5.5586-1.9219 10.379-5.5273 13.793-10.316 3.4141-4.7891 5.2539-10.52 5.2617-16.402 0-1.4648-0.30469-49.148-0.30469-49.148 0.003906-8.7812-3.0781-17.285-8.7031-24.031-5.625-6.7422-13.438-11.301-22.078-12.871l-64.328-11.699c-11.203-2.0352-22.695 1.4766-30.848 9.4219-8.1562 7.9453-11.957 19.348-10.211 30.598 1.75 11.25 8.832 20.961 19.012 26.059l4.6602 2.3281 0.003906 45.77c0.035157 8.7148 2.7539 17.211 7.7852 24.328s12.133 12.512 20.34 15.453v26.211l-32.922 28.125c-19.086 16.266-34.41 36.484-44.914 59.258s-15.938 47.555-15.922 72.633v52.312l-36.07 12.77c9.1289-4.8477 16.77-12.09 22.098-20.945 5.332-8.8594 8.1523-19 8.1602-29.336v-139.93c-0.015625-14.914-5.9492-29.211-16.496-39.754-10.543-10.547-24.84-16.48-39.754-16.496l-103.12 0.019531v-22.348c8.0391-2.082 15.16-6.7695 20.25-13.332s7.8594-14.629 7.875-22.934v-40.898c5.6016-2.6562 10.34-6.8477 13.656-12.09 3.3203-5.2383 5.0859-11.309 5.0938-17.512v-23.438c0-2.4883-0.98828-4.8711-2.7461-6.6289-1.7578-1.7578-4.1406-2.7461-6.6289-2.7461h-75c-20.328 0-37.5 16.098-37.5 35.156v58.594 0.23438c0.11328 5.707 1.9688 11.242 5.3203 15.863 3.3516 4.6211 8.0391 8.1055 13.43 9.9844v42.074h-93.75c-14.914 0.015625-29.211 5.9492-39.758 16.492-10.543 10.547-16.477 24.844-16.492 39.758v159.96c0 5.1758 4.1992 9.375 9.375 9.375s9.375-4.1992 9.375-9.375v-159.96c0.011719-9.9414 3.9648-19.473 10.996-26.504s16.562-10.984 26.504-10.996h103.12c2.4883 0 4.8711-0.98828 6.6289-2.7461 1.7578-1.7578 2.7461-4.1406 2.7461-6.6289v-9.375h18.75v9.3984c0 2.4883 0.98828 4.8711 2.7461 6.6289 1.7578 1.7578 4.1406 2.7461 6.6289 2.7461l112.5-0.023438c9.9414 0.011719 19.473 3.9648 26.504 10.996s10.984 16.562 10.996 26.504v139.93c0 9.2109-3.3477 18.109-9.4219 25.039 0-0.30469 0.046875-0.60156 0.046875-0.91016v-123.89c0-2.7617-1.2188-5.3867-3.332-7.168s-4.9023-2.5391-7.6289-2.0703l-92.164 15.805-92.164-15.801c-2.7227-0.46875-5.5156 0.28906-7.625 2.0703-2.1133 1.7812-3.3359 4.4023-3.3359 7.1641v79.531l-37.5 16.078v-98.281c0-5.1758-4.1992-9.375-9.375-9.375s-9.375 4.1992-9.375 9.375v112.5c0 3.1523 1.582 6.0898 4.2148 7.8242 2.6328 1.7383 5.957 2.0312 8.8555 0.79297l43.18-18.516v12.57-0.003906c0 4.5703 3.2891 8.4727 7.7891 9.2422l34.062 5.8398s-103.46 45.234-104.04 45.441l-54.266-19.73-24.219-27.242c-6.7422-49.82-28.957-96.262-63.516-132.77l2.8906-13.262h0.003907c10.246-0.17188 20.156-3.6875 28.227-10.008 8.0703-6.3203 13.855-15.102 16.48-25.008l5.793-22.156c1.6289-6.1875 2.2305-12.602 1.7773-18.984 3.3789-2.3359 6.5898-4.9062 9.6094-7.6914l2.7461-2.5312c1.8672-1.7227 2.957-4.1289 3.0156-6.6719 0.058594-2.543-0.91797-4.9961-2.7031-6.8047l-16.73-16.941c-19.664-19.828-46.414-31.008-74.34-31.074-4.4492 0.007812-8.8906 0.30469-13.305 0.88672-5.9219-7.4492-14.773-11.988-24.281-12.445-9.5078-0.46094-18.75 3.1992-25.367 10.043-6.6172 6.8438-9.9648 16.207-9.1836 25.691 0.78125 9.4883 5.6094 18.18 13.258 23.852l-47.477 167.71c-7.2695 25.621-15.922 50.828-25.918 75.512-10.016 24.664-21.371 48.762-34.012 72.188-28.523 52.832-50.57 108.9-65.676 167.01-0.054688 0.21484-0.10547 0.42969-0.14453 0.64844l-46.574 251.14c-0.50781 2.7383 0.23047 5.5586 2.0117 7.7031 1.7812 2.1406 4.4219 3.3789 7.207 3.3789h34.832l-44.016 213.73c-0.56641 2.7578 0.13672 5.6289 1.918 7.8125 1.7773 2.1875 4.4492 3.4531 7.2656 3.4531h412.5c2.6367 0 5.1484-1.1094 6.9258-3.0547 1.7734-1.9492 2.6484-4.5508 2.4102-7.1758l-0.78125-8.5195h103.95c2.4883 0 4.8711-0.98828 6.6289-2.7461 1.7578-1.7578 2.7461-4.1406 2.7461-6.6289v-140.71h18.75v140.71c0 2.4883 0.98828 4.8711 2.7461 6.6289 1.7578 1.7578 4.1406 2.7461 6.6289 2.7461h150c4.1328 0 7.7734-2.7031 8.9727-6.6562 1.1953-3.957-0.33594-8.2266-3.7734-10.52l-52.074-34.719v-98.121l28.125 0.015625c2.5469 0 4.9883-1.0352 6.7539-2.8672 1.7695-1.8359 2.7148-4.3086 2.6211-6.8555l-14.188-383.2c-0.070312-2.5-1.1367-4.8711-2.9609-6.582-1.8281-1.707-4.2617-2.6172-6.7617-2.5234s-4.8594 1.1836-6.5508 3.0234c-1.6953 1.8438-2.5781 4.2852-2.4609 6.7852l13.816 373.47-278.45-0.15625-1.4883-16.25 13.227-357.09h0.003906c0.14062-5.1406-3.8828-9.4336-9.0195-9.6289-5.1406-0.19141-9.4766 3.7891-9.7188 8.9258l-7.8555 212.03-23.527-256.57 175.86 60.707c2.0039 0.4375 4.043 0.71094 6.0938 0.8125 2.0391 0 4.0625-0.33594 5.9922-0.99219l181.93-61.531 0.003906 107.93c0 2.4883 0.98438 4.8711 2.7461 6.6289 1.7578 1.7578 4.1406 2.7461 6.6289 2.7461h18.75v180.56c0 0.23438 0 0.44531 0.023438 0.66797l18.359 257.06-51.707 34.473c-3.4375 2.293-4.9688 6.5625-3.7734 10.516s4.8398 6.6562 8.9688 6.6602h168.75c2.4883 0 4.8711-0.98828 6.6289-2.7461 1.7578-1.7578 2.7461-4.1406 2.7461-6.6289 0 0-0.37891-43.125-1.1289-53.641l-17.598-246.36 12.789-180.56h15.312c2.4883 0 4.8711-0.98828 6.6289-2.7461 1.7578-1.7578 2.7461-4.1445 2.7461-6.6289v-307.41c0.03125-44.938-13-88.914-37.5-126.58zm-380.81-140.32c0-7.7344 8.0195-16.406 18.75-16.406h65.625v14.062c-0.007812 7.7617-6.3008 14.055-14.062 14.062h-32.812c-5.1758 0-9.375 4.1992-9.375 9.375v2.4375c0 3.9805-0.92969 7.9102-2.707 11.469-7.4375-5.1367-16.891-6.4023-25.418-3.3945zm18.75 108v-31.125c0-2.4883-0.98828-4.8711-2.7461-6.6289-1.7578-1.7578-4.1406-2.7461-6.6289-2.7461-5.0625 0.027344-9.2227-3.9844-9.375-9.043v-0.33203c-0.003906-4.3242 2.9492-8.0859 7.1484-9.1133 4.1992-1.0273 8.5547 0.94922 10.547 4.7852 1.3398 2.582 3.8008 4.3945 6.6641 4.9062 2.8633 0.51562 5.8008-0.32812 7.9531-2.2812 7.4883-6.8047 12.43-15.961 14.016-25.953h19.297v37.688c-0.003906 4.9727-1.9844 9.7383-5.4961 13.254-3.5156 3.5117-8.2812 5.4922-13.254 5.4961-2.5 0-4.9883-0.32812-7.3984-0.98047-2.4102-0.68359-4.9922-0.37109-7.1719 0.85938-2.1758 1.2305-3.7734 3.2852-4.4297 5.6992-0.66016 2.418-0.32031 4.9961 0.93359 7.1602 1.2539 2.168 3.3242 3.7422 5.7461 4.375 0.97266 0.26562 1.9531 0.49609 2.9414 0.70312v3.2773zm262.97-105.47c0.011719-4.8672 2.1758-9.4766 5.9141-12.59 3.7422-3.1172 8.668-4.4141 13.453-3.543l64.332 11.691c4.3203 0.78516 8.2305 3.0664 11.043 6.4375 2.8125 3.375 4.3555 7.6289 4.3516 12.02v22.398c-7.4062-2.543-15.535-1.9141-22.461 1.7383-3.6953-5.832-5.6602-12.594-5.6641-19.496 0-2.4883-0.98828-4.8711-2.7461-6.6289-1.7578-1.7578-4.1406-2.7461-6.6289-2.7461-0.61719 0-1.2344 0.058594-1.8359 0.18359l-43.719 8.7461-6.9766-3.4883-0.003906-0.003906c-2.7344-1.3594-5.0352-3.4609-6.6367-6.0625s-2.4375-5.6016-2.4219-8.6562zm24.094 79.594v-43.879l29.281-5.8594c1.8164 8.7266 5.7148 16.879 11.363 23.773 1.2422 1.5156 2.5742 2.957 3.9844 4.3242 1.8828 1.8047 4.4336 2.7422 7.0391 2.5898 2.6055-0.15625 5.0273-1.3867 6.6836-3.4023 2.3398-2.875 6.1328-4.1367 9.7266-3.2344 3.5977 0.89844 6.3477 3.7969 7.0586 7.4336 0.015625 0.089844 0.03125 0.18359 0.050781 0.27344 0.082031 0.51172 0.12109 1.0273 0.11328 1.5469-0.011719 2.5469-1.0391 4.9844-2.8555 6.7734-1.8203 1.7852-4.2734 2.7734-6.8242 2.7422-5.1758 0-9.375 4.1953-9.375 9.375v50.797l-28.125 5.625v-26.395c0.003906-4.6641-3.4258-8.6211-8.043-9.2812-5.5703-0.82812-10.656-3.6211-14.34-7.8789-3.6836-4.2578-5.7188-9.6953-5.7383-15.324zm-193.31 264.94v-16.406c0-3.8828 3.1484-7.0312 7.0312-7.0312h42.188c3.8828 0 7.0312 3.1484 7.0312 7.0312v16.406c-0.007812 7.7617-6.3008 14.055-14.062 14.062h-28.125c-7.7617-0.007812-14.055-6.3008-14.062-14.062zm-112.5-38.203v-74.57l82.789 14.199c1.0508 0.18359 2.1211 0.18359 3.1719 0l82.789-14.199v71.586c-2.2852-0.65625-4.6523-0.99609-7.0312-1h-42.188c-6.8359 0.007812-13.387 2.7266-18.223 7.5586-4.832 4.8359-7.5508 11.387-7.5586 18.223v9.9688l-9.375 1.6133-84.375-14.469zm56.719 47.656 26.078 4.4727c0.51953 0.089844 1.0469 0.13672 1.5781 0.13672 0.53516 0 1.0664-0.046875 1.5898-0.13672l10.152-1.75 0.003906 0.003907c2.4336 6.082 6.6367 11.297 12.062 14.977 5.4219 3.6758 11.824 5.6484 18.379 5.6562h32.109c3.6328-0.003906 7.2578-0.35156 10.824-1.0469l-103.12 36.512-9.4766-5.0117h0.003907c-5.2578-2.7812-11.523-2.9062-16.883-0.33203-5.3633 2.5703-9.1875 7.5352-10.305 13.375l-1.6016 8.3594-5.5625 2.0859-77.844-28.301zm-200.54 36.762 142.3 51.754c-2.3984 2.6055-4.0078 5.8398-4.6367 9.3281-0.63281 3.4844-0.26172 7.0781 1.0664 10.359l15.184 37.57-166.3-57.398c-10.066-3.4766-19.051-9.5273-26.062-17.547l-80.234-92.02v-73.301c1.1055 0.87891 2.1328 1.8516 3.0742 2.9102l111.8 125.77c1.0312 1.1602 2.3398 2.0508 3.8008 2.5781zm-40.547-72.145-61.035-68.672c-4.6641-5.2188-10.531-9.2227-17.094-11.668v-13.289c0.54297-0.015625 24.195-0.066406 24.195-0.066406 25.438 26.297 43.965 58.488 53.922 93.695zm-9.0938-157.7v-0.003907c-1.8125 6.8555-6.1406 12.777-12.125 16.586-5.9805 3.8086-13.176 5.2227-20.156 3.9648-4.9766-0.92187-9.7852 2.2734-10.863 7.2188l-3.8164 17.488s-21.523 0.054687-22.062 0.066406v-46.066c1.5625 0.75391 3.1914 1.3594 4.8672 1.8008 5.0117 1.3125 10.133-1.6875 11.445-6.6953 1.3125-5.0117-1.6875-10.133-6.6953-11.445-4.4922-1.1875-7.1797-5.7852-6.0117-10.281 1.1875-4.4844 5.7656-7.1758 10.258-6.0312 2.6914 0.69922 4.8594 2.6875 5.7891 5.3086 1.1055 3.1172 3.7695 5.4258 7.0156 6.0664 5.6094 1.1055 11.312 1.6602 17.031 1.6562 10.93-0.015625 21.758-2.0391 31.957-5.9688-0.21094 1.4102-0.5 2.8047-0.85547 4.1836zm-52.699-89.367c22.914 0.054688 44.859 9.2305 60.992 25.5l9.7461 9.8711h0.003906c-2.2891 1.7812-4.6914 3.4141-7.1875 4.8867-10.938 6.5391-23.438 9.9922-36.18 9.9922-2.9922 0-5.9844-0.19141-8.9492-0.57422-3.543-5.6602-9.0508-9.8125-15.465-11.66s-13.285-1.2656-19.297 1.6445v-12.988c6.5586-6.2227 10.277-14.863 10.285-23.906 0-0.84766-0.066406-1.6758-0.12891-2.5039 2.0586-0.16016 4.1211-0.26172 6.1797-0.26172zm-39.141-11.594c4.0977-0.003906 8 1.75 10.723 4.8125 2.7227 3.0625 4.0039 7.1406 3.5234 11.211-0.48047 4.0703-2.6797 7.7383-6.043 10.082l-0.03125 0.023437c-3.75 2.6055-8.5156 3.2695-12.836 1.7891s-7.6758-4.9297-9.0391-9.2891c-1.3633-4.3555-0.57031-9.1016 2.1328-12.781 2.7031-3.6797 7-5.8516 11.566-5.8477zm-174.59 527.69c14.727-56.531 36.195-111.09 63.945-162.49 12.973-24.035 24.617-48.758 34.891-74.062 10.254-25.316 19.129-51.168 26.582-77.445l47.086-166.35c0.70312 0.042968 1.375 0.10547 2.0781 0.10547v0.003907c1.3594-0.007813 2.7188-0.10156 4.0664-0.27734v243.47c0.011719 47.77-7.6914 95.227-22.812 140.54-4.7734 14.297-8.9062 29.109-12.297 44.02-3.3555 14.766-6.0078 29.91-7.8945 45.023l-30.898 247.18h-149.2zm-44.227 464.72 42.477-206.25h114.77c4.7266 0 8.7109-3.5156 9.3008-8.2031l31.922-255.4c1.8086-14.504 4.3594-29.035 7.5742-43.191 3.25-14.309 7.2188-28.516 11.797-42.238 14.637-43.855 22.605-89.656 23.648-135.88l66.242 75.965c7.832 8.9531 17.566 16.043 28.488 20.758l54.504 594.44zm504.12-18.75h-96.289l-0.76953-8.3945 15.523-10.355h53.996c5.1758 0 9.375-4.1992 9.375-9.375s-4.1992-9.375-9.375-9.375h-47.461v-93.891l75 0.042969zm131.25-37.5h-47.168c-5.1758 0-9.375 4.1992-9.375 9.375s4.1992 9.375 9.375 9.375h53.703l28.125 18.75h-109.66v-131.32l75 0.042968zm-225-93.898v98.258l-5.2578 3.5156-9.332-101.77zm127.27-394.57-21.219-52.473 27.324-10.246h-0.003906c3.0625-1.1445 5.3047-3.8047 5.918-7.0117l2.5938-13.527 13.113 6.9375c2.3125 1.2188 5.0312 1.418 7.5 0.55078l14.184-5.0234 21.051 56.953zm347.3 544.71h-128.41l28.125-18.75h66.934c5.1758 0 9.375-4.1992 9.375-9.375s-4.1992-9.375-9.375-9.375h-61.043l-18.105-253.46v-180.23h75c4.1836 0 7.8633-2.7734 9.0156-6.7969l9.7344-34.074 9.7383 34.074c0.53906 1.8711 1.6484 3.5273 3.1719 4.7383l-12.891 181.96c-0.027343 0.44141-0.027343 0.88672 0 1.332l17.645 247.03c0.72266 10.074 1.0859 42.93 1.0859 42.93zm18.75-489.94h-11.672l-16.809-58.828c-1.1523-4.0234-4.8281-6.793-9.0117-6.793-4.1875 0-7.8633 2.7695-9.0156 6.793l-16.809 58.828h-96.059v-104.89l36.965-12.5c24.98-8.4414 44.168-28.699 51.234-54.105l39.523-141.89c1.3906-4.9883-1.5273-10.16-6.5156-11.547-4.9883-1.3906-10.16 1.5273-11.547 6.5156l-39.535 141.89c-5.4023 19.426-20.07 34.922-39.18 41.371l-149.39 50.527-21.137-57.188 142.73-50.527c2.6836-0.95312 4.793-3.0742 5.7266-5.7656l47.531-136.95c1.9023-5.4766 5.4648-10.223 10.188-13.582 4.7266-3.3594 10.379-5.168 16.176-5.168 5.1758 0 9.375-4.1992 9.375-9.375s-4.1992-9.375-9.375-9.375c-9.6953 0.003906-19.145 3.0273-27.043 8.6445-7.8984 5.6211-13.855 13.559-17.035 22.715l-38.699 111.5v-27.102c-0.027344-45.266 19.805-88.266 54.254-117.63l34.352-29.352 38.23-7.6445c21.297 33.988 32.574 73.293 32.539 113.4z"/>
</svg>
